<svg width="1404" height="332" viewBox="0 0 1404 332" fill="none" xmlns="http://www.w3.org/2000/svg">
<g filter="url(#filter0_d_441_7070)">
<path d="M96.75 199V178H114.9V115H96.75V94H158.1V115H139.95V178H158.1V199H96.75ZM213.701 199V94H274.601C279.801 94 284.501 95.15 288.701 97.45C293.001 99.75 296.401 102.95 298.901 107.05C301.501 111.15 302.801 116 302.801 121.6C302.801 124.9 302.151 128.05 300.851 131.05C299.651 134.05 297.901 136.7 295.601 139C293.401 141.3 290.851 143.15 287.951 144.55C291.351 145.95 294.351 147.95 296.951 150.55C299.651 153.15 301.751 156.15 303.251 159.55C304.851 162.95 305.651 166.6 305.651 170.5C305.651 176.2 304.301 181.2 301.601 185.5C299.001 189.8 295.501 193.15 291.101 195.55C286.701 197.85 281.801 199 276.401 199H213.701ZM238.901 178.15H269.801C271.901 178.15 273.751 177.65 275.351 176.65C277.051 175.65 278.401 174.3 279.401 172.6C280.401 170.9 280.901 169.05 280.901 167.05C280.901 164.95 280.401 163.1 279.401 161.5C278.401 159.8 277.051 158.45 275.351 157.45C273.751 156.45 271.901 155.95 269.801 155.95H238.901V178.15ZM238.901 135.85H267.251C269.251 135.85 271.001 135.4 272.501 134.5C274.101 133.5 275.351 132.25 276.251 130.75C277.151 129.15 277.601 127.4 277.601 125.5C277.601 123.5 277.151 121.75 276.251 120.25C275.351 118.65 274.101 117.4 272.501 116.5C271.001 115.5 269.251 115 267.251 115H238.901V135.85ZM364.445 200.8C355.745 200.8 347.995 199.05 341.195 195.55C334.495 192.05 329.245 187.05 325.445 180.55C321.645 174.05 319.745 166.3 319.745 157.3V94H344.645V158.65C344.645 162.55 345.445 166.1 347.045 169.3C348.645 172.4 350.945 174.9 353.945 176.8C356.945 178.6 360.445 179.5 364.445 179.5C368.545 179.5 372.045 178.6 374.945 176.8C377.945 174.9 380.245 172.4 381.845 169.3C383.445 166.1 384.245 162.55 384.245 158.65V94H409.145V157.3C409.145 166.3 407.195 174.05 403.295 180.55C399.495 187.05 394.245 192.05 387.545 195.55C380.845 199.05 373.145 200.8 364.445 200.8ZM424.436 199V178H442.586V115H424.436V94H485.786V115H467.636V178H485.786V199H424.436ZM532.889 199C526.389 199 520.689 197.55 515.789 194.65C510.889 191.75 507.089 187.9 504.389 183.1C501.689 178.3 500.339 173 500.339 167.2V94H525.539V169C525.539 171.4 526.389 173.5 528.089 175.3C529.789 177.1 531.889 178 534.389 178H562.139V199H532.889ZM574.199 199V94H612.749C623.849 94 633.449 96.25 641.549 100.75C649.749 105.25 656.099 111.45 660.599 119.35C665.199 127.25 667.499 136.3 667.499 146.5C667.499 156.7 665.199 165.75 660.599 173.65C656.099 181.55 649.749 187.75 641.549 192.25C633.449 196.75 623.849 199 612.749 199H574.199ZM599.399 178H612.149C617.949 178 623.099 176.75 627.599 174.25C632.199 171.65 635.799 168 638.399 163.3C640.999 158.6 642.299 153 642.299 146.5C642.299 140 640.999 134.4 638.399 129.7C635.799 125 632.199 121.4 627.599 118.9C623.099 116.3 617.949 115 612.149 115H599.399V178ZM765.601 199C759.201 199 753.551 197.6 748.651 194.8C743.851 191.9 740.051 188.05 737.251 183.25C734.551 178.45 733.201 173.1 733.201 167.2V115H704.701V94H786.751V115H758.401V169.45C758.401 171.75 759.201 173.75 760.801 175.45C762.401 177.15 764.401 178 766.801 178H775.051V199H765.601ZM798.173 199V94H823.373V135.25H864.323V94H889.523V199H864.323V156.25H823.373V199H798.173ZM905.49 199V178H923.64V115H905.49V94H966.84V115H948.69V178H966.84V199H905.49ZM1056.69 200.8C1050.39 200.8 1044.74 199.45 1039.74 196.75C1034.74 193.95 1030.79 190.1 1027.89 185.2C1024.99 180.3 1023.54 174.75 1023.54 168.55V122.65C1023.54 121.05 1023.14 119.6 1022.34 118.3C1021.54 117 1020.49 115.95 1019.19 115.15C1017.89 114.35 1016.44 113.95 1014.84 113.95C1013.24 113.95 1011.79 114.35 1010.49 115.15C1009.19 115.95 1008.14 117 1007.34 118.3C1006.64 119.6 1006.29 121.05 1006.29 122.65V199H981.694V124.45C981.694 118.15 983.094 112.6 985.894 107.8C988.794 103 992.744 99.2 997.744 96.4C1002.84 93.6 1008.54 92.2 1014.84 92.2C1021.24 92.2 1026.94 93.6 1031.94 96.4C1036.94 99.2 1040.89 103 1043.79 107.8C1046.69 112.6 1048.14 118.15 1048.14 124.45V170.35C1048.14 171.95 1048.54 173.45 1049.34 174.85C1050.14 176.15 1051.14 177.2 1052.34 178C1053.64 178.7 1055.04 179.05 1056.54 179.05C1058.14 179.05 1059.59 178.7 1060.89 178C1062.29 177.2 1063.39 176.15 1064.19 174.85C1064.99 173.45 1065.39 171.95 1065.39 170.35V94H1089.84V168.55C1089.84 174.75 1088.39 180.3 1085.49 185.2C1082.59 190.1 1078.64 193.95 1073.64 196.75C1068.64 199.45 1062.99 200.8 1056.69 200.8ZM1182.86 231.7C1176.66 231.7 1171.36 230.6 1166.96 228.4C1162.56 226.2 1159.21 223.1 1156.91 219.1C1154.61 215.1 1153.46 210.45 1153.46 205.15C1153.46 204.05 1153.46 202.9 1153.46 201.7C1153.56 200.6 1153.71 199.4 1153.91 198.1C1146.21 198 1139.21 196.55 1132.91 193.75C1126.61 190.95 1121.16 187.15 1116.56 182.35C1112.06 177.55 1108.56 172 1106.06 165.7C1103.66 159.3 1102.46 152.5 1102.46 145.3C1102.46 137.9 1103.71 131 1106.21 124.6C1108.81 118.2 1112.46 112.6 1117.16 107.8C1121.96 102.9 1127.71 99.1 1134.41 96.4C1141.11 93.6 1148.56 92.2 1156.76 92.2C1164.96 92.2 1172.41 93.5 1179.11 96.1C1185.81 98.7 1191.56 102.4 1196.36 107.2C1201.16 112 1204.81 117.55 1207.31 123.85C1209.91 130.15 1211.21 137 1211.21 144.4V202.15C1211.21 207.45 1210.16 212.35 1208.06 216.85C1206.06 221.35 1202.96 224.95 1198.76 227.65C1194.56 230.35 1189.26 231.7 1182.86 231.7ZM1181.51 210.25C1183.41 210.25 1184.86 209.45 1185.86 207.85C1186.96 206.35 1187.51 204.35 1187.51 201.85V177.4C1184.61 179.9 1182.31 182.4 1180.61 184.9C1179.01 187.4 1177.86 189.75 1177.16 191.95C1176.46 194.15 1176.01 196.1 1175.81 197.8C1175.71 199.5 1175.66 200.85 1175.66 201.85C1175.66 203.65 1175.91 205.15 1176.41 206.35C1176.91 207.65 1177.61 208.6 1178.51 209.2C1179.51 209.9 1180.51 210.25 1181.51 210.25ZM1155.86 176.8C1156.96 176.8 1157.96 176.75 1158.86 176.65C1159.86 176.55 1160.86 176.4 1161.86 176.2C1163.66 173.5 1165.76 170.85 1168.16 168.25C1170.56 165.55 1173.26 162.95 1176.26 160.45C1179.26 157.95 1182.56 155.6 1186.16 153.4V143.65C1186.16 139.35 1185.41 135.35 1183.91 131.65C1182.51 127.95 1180.46 124.75 1177.76 122.05C1175.16 119.35 1172.06 117.25 1168.46 115.75C1164.96 114.25 1161.11 113.5 1156.91 113.5C1152.71 113.5 1148.81 114.3 1145.21 115.9C1141.71 117.4 1138.61 119.6 1135.91 122.5C1133.31 125.4 1131.26 128.8 1129.76 132.7C1128.36 136.5 1127.66 140.65 1127.66 145.15C1127.66 149.65 1128.31 153.8 1129.61 157.6C1131.01 161.4 1132.96 164.75 1135.46 167.65C1138.06 170.45 1141.06 172.65 1144.46 174.25C1147.96 175.85 1151.76 176.7 1155.86 176.8ZM1227.83 199V178H1272.68C1274.68 178 1276.48 177.5 1278.08 176.5C1279.68 175.5 1280.93 174.2 1281.83 172.6C1282.83 171 1283.33 169.25 1283.33 167.35C1283.33 165.35 1282.83 163.55 1281.83 161.95C1280.93 160.35 1279.68 159.05 1278.08 158.05C1276.48 157.05 1274.68 156.55 1272.68 156.55H1256.48C1250.38 156.55 1244.83 155.35 1239.83 152.95C1234.83 150.55 1230.83 147.05 1227.83 142.45C1224.93 137.75 1223.48 132.15 1223.48 125.65C1223.48 119.25 1224.88 113.7 1227.68 109C1230.48 104.3 1234.28 100.65 1239.08 98.05C1243.88 95.35 1249.18 94 1254.98 94H1301.33V115H1257.83C1256.03 115 1254.38 115.45 1252.88 116.35C1251.38 117.25 1250.23 118.45 1249.43 119.95C1248.63 121.45 1248.23 123.1 1248.23 124.9C1248.23 126.7 1248.63 128.35 1249.43 129.85C1250.23 131.25 1251.38 132.4 1252.88 133.3C1254.38 134.2 1256.03 134.65 1257.83 134.65H1274.78C1281.48 134.65 1287.28 135.95 1292.18 138.55C1297.18 141.05 1301.03 144.6 1303.73 149.2C1306.53 153.7 1307.93 159 1307.93 165.1C1307.93 172.3 1306.48 178.45 1303.58 183.55C1300.78 188.55 1296.98 192.4 1292.18 195.1C1287.38 197.7 1282.08 199 1276.28 199H1227.83Z" fill="url(#paint0_linear_441_7070)"/>
</g>
<defs>
<filter id="filter0_d_441_7070" x="0.75" y="0.200195" width="1403.18" height="331.5" filterUnits="userSpaceOnUse" color-interpolation-filters="sRGB">
<feFlood flood-opacity="0" result="BackgroundImageFix"/>
<feColorMatrix in="SourceAlpha" type="matrix" values="0 0 0 0 0 0 0 0 0 0 0 0 0 0 0 0 0 0 127 0" result="hardAlpha"/>
<feOffset dy="4"/>
<feGaussianBlur stdDeviation="48"/>
<feComposite in2="hardAlpha" operator="out"/>
<feColorMatrix type="matrix" values="0 0 0 0 0.279167 0 0 0 0 0.753399 0 0 0 0 1 0 0 0 0.32 0"/>
<feBlend mode="normal" in2="BackgroundImageFix" result="effect1_dropShadow_441_7070"/>
<feBlend mode="normal" in="SourceGraphic" in2="effect1_dropShadow_441_7070" result="shape"/>
</filter>
<linearGradient id="paint0_linear_441_7070" x1="18.7811" y1="93.9201" x2="1373.73" y2="225.076" gradientUnits="userSpaceOnUse">
<stop stop-color="#58EFEC"/>
<stop offset="0.283926" stop-color="#A0A6BE"/>
<stop offset="0.623918" stop-color="#C481A7"/>
<stop offset="1" stop-color="#E85C90"/>
</linearGradient>
</defs>
</svg>
