<svg width="229" height="44" viewBox="0 0 229 44" fill="none" xmlns="http://www.w3.org/2000/svg">
<path d="M1.9 43V34.6H19.84C20.64 34.6 21.36 34.4 22 34C22.64 33.6 23.14 33.08 23.5 32.44C23.9 31.8 24.1 31.1 24.1 30.34C24.1 29.54 23.9 28.82 23.5 28.18C23.14 27.54 22.64 27.02 22 26.62C21.36 26.22 20.64 26.02 19.84 26.02H13.36C10.92 26.02 8.7 25.54 6.7 24.58C4.7 23.62 3.1 22.22 1.9 20.38C0.74 18.5 0.16 16.26 0.16 13.66C0.16 11.1 0.72 8.88 1.84 7C2.96 5.12 4.48 3.66 6.4 2.62C8.32 1.54 10.44 0.999997 12.76 0.999997H31.3V9.4H13.9C13.18 9.4 12.52 9.58 11.92 9.94C11.32 10.3 10.86 10.78 10.54 11.38C10.22 11.98 10.06 12.64 10.06 13.36C10.06 14.08 10.22 14.74 10.54 15.34C10.86 15.9 11.32 16.36 11.92 16.72C12.52 17.08 13.18 17.26 13.9 17.26H20.68C23.36 17.26 25.68 17.78 27.64 18.82C29.64 19.82 31.18 21.24 32.26 23.08C33.38 24.88 33.94 27 33.94 29.44C33.94 32.32 33.36 34.78 32.2 36.82C31.08 38.82 29.56 40.36 27.64 41.44C25.72 42.48 23.6 43 21.28 43H1.9ZM39.5116 43V0.999997H49.5916V17.5H65.9716V0.999997H76.0516V43H65.9716V25.9H49.5916V43H39.5116ZM82.4383 43V34.6H89.6983V9.4H82.4383V0.999997H106.978V9.4H99.7183V34.6H106.978V43H82.4383ZM113.34 43V0.999997H137.7C139.78 0.999997 141.66 1.46 143.34 2.38C145.06 3.3 146.42 4.58 147.42 6.22C148.46 7.86 148.98 9.8 148.98 12.04C148.98 13.36 148.72 14.62 148.2 15.82C147.72 17.02 147.02 18.08 146.1 19C145.22 19.92 144.2 20.66 143.04 21.22C144.4 21.78 145.6 22.58 146.64 23.62C147.72 24.66 148.56 25.86 149.16 27.22C149.8 28.58 150.12 30.04 150.12 31.6C150.12 33.88 149.58 35.88 148.5 37.6C147.46 39.32 146.06 40.66 144.3 41.62C142.54 42.54 140.58 43 138.42 43H113.34ZM123.42 34.66H135.78C136.62 34.66 137.36 34.46 138 34.06C138.68 33.66 139.22 33.12 139.62 32.44C140.02 31.76 140.22 31.02 140.22 30.22C140.22 29.38 140.02 28.64 139.62 28C139.22 27.32 138.68 26.78 138 26.38C137.36 25.98 136.62 25.78 135.78 25.78H123.42V34.66ZM123.42 17.74H134.76C135.56 17.74 136.26 17.56 136.86 17.2C137.5 16.8 138 16.3 138.36 15.7C138.72 15.06 138.9 14.36 138.9 13.6C138.9 12.8 138.72 12.1 138.36 11.5C138 10.86 137.5 10.36 136.86 10C136.26 9.6 135.56 9.4 134.76 9.4H123.42V17.74ZM154.977 43V34.6H162.237V9.4H154.977V0.999997H179.517V9.4H172.257V34.6H179.517V43H154.977ZM215.459 43.72C212.939 43.72 210.679 43.18 208.679 42.1C206.679 40.98 205.099 39.44 203.939 37.48C202.779 35.52 202.199 33.3 202.199 30.82V12.46C202.199 11.82 202.039 11.24 201.719 10.72C201.399 10.2 200.979 9.78 200.459 9.46C199.939 9.14 199.359 8.98 198.719 8.98C198.079 8.98 197.499 9.14 196.979 9.46C196.459 9.78 196.039 10.2 195.719 10.72C195.439 11.24 195.299 11.82 195.299 12.46V43H185.459V13.18C185.459 10.66 186.019 8.44 187.139 6.52C188.299 4.6 189.879 3.08 191.879 1.96C193.919 0.839999 196.199 0.279999 198.719 0.279999C201.279 0.279999 203.559 0.839999 205.559 1.96C207.559 3.08 209.139 4.6 210.299 6.52C211.459 8.44 212.039 10.66 212.039 13.18V31.54C212.039 32.18 212.199 32.78 212.519 33.34C212.839 33.86 213.239 34.28 213.719 34.6C214.239 34.88 214.799 35.02 215.399 35.02C216.039 35.02 216.619 34.88 217.139 34.6C217.699 34.28 218.139 33.86 218.459 33.34C218.779 32.78 218.939 32.18 218.939 31.54V0.999997H228.719V30.82C228.719 33.3 228.139 35.52 226.979 37.48C225.819 39.44 224.239 40.98 222.239 42.1C220.239 43.18 217.979 43.72 215.459 43.72Z" fill="url(#paint0_linear_441_27)"/>
<defs>
<linearGradient id="paint0_linear_441_27" x1="-15.6847" y1="0.600021" x2="246.535" y2="12.87" gradientUnits="userSpaceOnUse">
<stop stop-color="#58EFEC"/>
<stop offset="0.283926" stop-color="#A0A6BE"/>
<stop offset="0.623918" stop-color="#C481A7"/>
<stop offset="1" stop-color="#E85C90"/>
</linearGradient>
</defs>
</svg>
